<svg width="32" height="33" viewBox="0 0 32 33" fill="none" xmlns="http://www.w3.org/2000/svg">
<path opacity="0.2" d="M16 28.6343C22.6274 28.6343 28 23.2617 28 16.6343C28 10.0069 22.6274 4.63428 16 4.63428C9.37258 4.63428 4 10.0069 4 16.6343C4 23.2617 9.37258 28.6343 16 28.6343Z" fill="#DC9927"/>
<path d="M16 9.63428V11.6343" stroke="#003366" stroke-width="2" stroke-linecap="round" stroke-linejoin="round"/>
<path d="M16 21.6343V23.6343" stroke="#003366" stroke-width="2" stroke-linecap="round" stroke-linejoin="round"/>
<path d="M16 28.6343C22.6274 28.6343 28 23.2617 28 16.6343C28 10.0069 22.6274 4.63428 16 4.63428C9.37258 4.63428 4 10.0069 4 16.6343C4 23.2617 9.37258 28.6343 16 28.6343Z" stroke="#003366" stroke-width="2" stroke-linecap="round" stroke-linejoin="round"/>
<path d="M13 21.6343H17.5C18.163 21.6343 18.7989 21.3709 19.2678 20.902C19.7366 20.4332 20 19.7973 20 19.1343C20 18.4712 19.7366 17.8354 19.2678 17.3665C18.7989 16.8977 18.163 16.6343 17.5 16.6343H14.5C13.837 16.6343 13.2011 16.3709 12.7322 15.902C12.2634 15.4332 12 14.7973 12 14.1343C12 13.4712 12.2634 12.8354 12.7322 12.3665C13.2011 11.8977 13.837 11.6343 14.5 11.6343H19" stroke="#003366" stroke-width="2" stroke-linecap="round" stroke-linejoin="round"/>
</svg>
