<svg width="24" height="25" viewBox="0 0 24 25" fill="none" xmlns="http://www.w3.org/2000/svg">
<path d="M12 1.5625C9.81273 1.56508 7.71575 2.47133 6.16911 4.08241C4.62247 5.69349 3.75248 7.87784 3.75 10.1562C3.75 17.5098 11.25 23.0635 11.5697 23.2959C11.6958 23.3879 11.846 23.4373 12 23.4373C12.154 23.4373 12.3042 23.3879 12.4303 23.2959C12.75 23.0635 20.25 17.5098 20.25 10.1562C20.2475 7.87784 19.3775 5.69349 17.8309 4.08241C16.2843 2.47133 14.1873 1.56508 12 1.5625ZM12 7.03125C12.5933 7.03125 13.1734 7.21453 13.6667 7.55791C14.1601 7.90129 14.5446 8.38934 14.7716 8.96036C14.9987 9.53138 15.0581 10.1597 14.9424 10.7659C14.8266 11.3721 14.5409 11.9289 14.1213 12.366C13.7018 12.803 13.1672 13.1006 12.5853 13.2212C12.0033 13.3418 11.4001 13.2799 10.8519 13.0434C10.3038 12.8069 9.83524 12.4063 9.50559 11.8924C9.17595 11.3785 9 10.7743 9 10.1562C9 9.32745 9.31607 8.53259 9.87868 7.94654C10.4413 7.36049 11.2044 7.03125 12 7.03125Z" fill="currentColor"/>
</svg>
