<?xml version="1.0" standalone="no"?>
<!DOCTYPE svg PUBLIC "-//W3C//DTD SVG 20010904//EN"
 "http://www.w3.org/TR/2001/REC-SVG-20010904/DTD/svg10.dtd">
<svg version="1.0" xmlns="http://www.w3.org/2000/svg"
 width="96.000000pt" height="96.000000pt" viewBox="0 0 96.000000 96.000000"
 preserveAspectRatio="xMidYMid meet">

<g transform="translate(0.000000,96.000000) scale(0.100000,-0.100000)"
fill="currentColor" stroke="none">
<path d="M386 830 c-63 -16 -153 -70 -197 -117 -22 -24 -55 -74 -72 -111 -29
-61 -32 -76 -32 -162 0 -85 3 -102 31 -160 38 -80 78 -128 121 -146 46 -20
440 -20 486 0 43 18 83 66 121 146 28 59 31 74 31 161 0 90 -2 99 -37 171 -68
136 -188 217 -336 224 -42 2 -94 -1 -116 -6z m236 -82 c71 -33 133 -94 167
-167 22 -47 26 -70 26 -141 0 -73 -4 -93 -28 -142 -15 -31 -44 -70 -63 -87
l-35 -31 -209 0 -209 0 -35 31 c-49 43 -87 125 -93 202 -21 256 245 442 479
335z"/>
<path d="M454 736 c-10 -26 4 -48 28 -44 17 2 23 10 23 28 0 18 -6 26 -23 28
-13 2 -25 -3 -28 -12z"/>
<path d="M261 656 c-17 -20 -2 -48 23 -44 24 3 34 37 14 49 -18 12 -24 11 -37
-5z"/>
<path d="M662 661 c-20 -12 -10 -46 14 -49 25 -4 40 24 23 44 -13 16 -19 17
-37 5z"/>
<path d="M593 515 c-122 -31 -148 -44 -148 -74 0 -13 8 -29 18 -35 14 -9 34
-2 103 34 95 50 142 84 128 92 -5 3 -51 -4 -101 -17z"/>
<path d="M174 456 c-10 -26 4 -48 28 -44 33 4 33 52 0 56 -13 2 -25 -3 -28
-12z"/>
<path d="M734 456 c-10 -26 4 -48 28 -44 17 2 23 10 23 28 0 18 -6 26 -23 28
-13 2 -25 -3 -28 -12z"/>
<path d="M256 254 c-4 -10 -1 -24 7 -31 19 -19 49 -5 45 21 -4 27 -43 34 -52
10z"/>
<path d="M657 263 c-13 -12 -7 -41 10 -47 21 -9 46 16 37 37 -6 17 -35 23 -47
10z"/>
</g>
</svg>
