<svg width="32" height="33" viewBox="0 0 32 33" fill="none" xmlns="http://www.w3.org/2000/svg">
<path opacity="0.2" d="M23 15.6343V18.6343H3V23.6343C3 23.8995 3.10536 24.1538 3.29289 24.3414C3.48043 24.5289 3.73478 24.6343 4 24.6343H7C7 23.8386 7.31607 23.0756 7.87868 22.513C8.44129 21.9503 9.20435 21.6343 10 21.6343C10.7956 21.6343 11.5587 21.9503 12.1213 22.513C12.6839 23.0756 13 23.8386 13 24.6343H21C21 23.8386 21.3161 23.0756 21.8787 22.513C22.4413 21.9503 23.2044 21.6343 24 21.6343C24.7956 21.6343 25.5587 21.9503 26.1213 22.513C26.6839 23.0756 27 23.8386 27 24.6343H30C30.2652 24.6343 30.5196 24.5289 30.7071 24.3414C30.8946 24.1538 31 23.8995 31 23.6343V15.6343H23Z" fill="#DC9927"/>
<path d="M23 10.6343H28.3225C28.5218 10.6342 28.7165 10.6936 28.8818 10.805C29.0471 10.9163 29.1753 11.0745 29.25 11.2593L31 15.6343" stroke="#003366" stroke-width="2" stroke-linecap="round" stroke-linejoin="round"/>
<path d="M3 18.6343H23" stroke="#003366" stroke-width="2" stroke-linecap="round" stroke-linejoin="round"/>
<path d="M24 27.6343C25.6569 27.6343 27 26.2911 27 24.6343C27 22.9774 25.6569 21.6343 24 21.6343C22.3431 21.6343 21 22.9774 21 24.6343C21 26.2911 22.3431 27.6343 24 27.6343Z" stroke="#003366" stroke-width="2" stroke-linecap="round" stroke-linejoin="round"/>
<path d="M10 27.6343C11.6569 27.6343 13 26.2911 13 24.6343C13 22.9774 11.6569 21.6343 10 21.6343C8.34315 21.6343 7 22.9774 7 24.6343C7 26.2911 8.34315 27.6343 10 27.6343Z" stroke="#003366" stroke-width="2" stroke-linecap="round" stroke-linejoin="round"/>
<path d="M21 24.6343H13" stroke="#003366" stroke-width="2" stroke-linecap="round" stroke-linejoin="round"/>
<path d="M23 15.6343H31V23.6343C31 23.8995 30.8946 24.1538 30.7071 24.3414C30.5196 24.5289 30.2652 24.6343 30 24.6343H27" stroke="#003366" stroke-width="2" stroke-linecap="round" stroke-linejoin="round"/>
<path d="M7 24.6343H4C3.73478 24.6343 3.48043 24.5289 3.29289 24.3414C3.10536 24.1538 3 23.8995 3 23.6343V9.63428C3 9.36906 3.10536 9.11471 3.29289 8.92717C3.48043 8.73963 3.73478 8.63428 4 8.63428H23V21.8055" stroke="#003366" stroke-width="2" stroke-linecap="round" stroke-linejoin="round"/>
</svg>
